#N canvas 59 304 439 362 10;
#X obj 238 26 loadbang;
#X obj 117 400 scopeXYZ~ 1024;
#X floatatom 384 185 5 0 0 0 - - -;
#X obj 254 97 r caminho-Tick;
#X obj 309 194 mod 853;
#X obj 309 217 / 853;
#X obj 170 371 r~ SoundInputMono;
#X obj 143 346 r~ caminhoSync;
#X obj 127 168 \$1;
#X obj 158 168 \$2;
#X obj 191 168 \$3;
#X obj 351 72 \$4;
#X obj 238 49 t b b b b;
#X obj 335 23 inlet;
#X obj 309 240 * 8;
#X obj 309 263 - 4;
#X obj 117 48 separator;
#X obj 117 25 r caminhoGem;
#X obj 351 105 t f f;
#X obj 292 136 / 3;
#X obj 232 192 mod 853;
#X obj 232 215 / 853;
#X obj 384 207 t f f;
#X obj 292 165 t f f;
#X floatatom 335 152 5 0 0 0 - - -;
#X obj 290 322 cos;
#X obj 117 261 colourRGB 1 0 0 1;
#X obj 290 345 + 1;
#X obj 290 368 / 2;
#X obj 290 299 * 6.28319;
#X obj 117 294 translateXYZ 0 0 0;
#X connect 0 0 12 0;
#X connect 2 0 22 0;
#X connect 3 0 4 0;
#X connect 3 0 20 0;
#X connect 4 0 5 0;
#X connect 5 0 14 0;
#X connect 6 0 1 2;
#X connect 7 0 1 1;
#X connect 8 0 26 1;
#X connect 9 0 26 2;
#X connect 10 0 26 3;
#X connect 11 0 18 0;
#X connect 12 0 8 0;
#X connect 12 1 9 0;
#X connect 12 2 10 0;
#X connect 12 3 11 0;
#X connect 13 0 12 0;
#X connect 14 0 15 0;
#X connect 15 0 30 2;
#X connect 16 0 26 0;
#X connect 17 0 16 0;
#X connect 18 0 19 0;
#X connect 18 1 2 0;
#X connect 19 0 23 0;
#X connect 19 0 24 0;
#X connect 20 0 21 0;
#X connect 21 0 29 0;
#X connect 22 0 4 1;
#X connect 22 1 5 1;
#X connect 23 0 20 1;
#X connect 23 1 21 1;
#X connect 25 0 27 0;
#X connect 26 0 30 0;
#X connect 27 0 28 0;
#X connect 28 0 26 4;
#X connect 29 0 25 0;
#X connect 30 0 1 0;
