#N canvas 1 81 492 446 10;
#X floatatom 144 77 5 0 0 0 - - -;
#X obj 117 -26 t a b;
#X obj 144 -1 f;
#X obj 144 22 + 1;
#X obj 144 47 s caminho-Tick;
#X obj 312 -22 osc~ 17;
#X obj 313 2 send~ caminhoSync;
#X obj 116 109 scaleXYZ 5.5 1 1;
#X obj 116 177 s caminhoGem;
#X obj 116 132 alpha;
#X obj 20 287 ca-module 1 1 0 219;
#X obj 270 173 bng 15 250 50 0 empty empty empty 17 7 0 10 -262144
-1 -1;
#X obj 167 287 ca-module 0 0 1 192;
#X obj 38 228 ca-module 0 1 0 291;
#X obj 313 217 ca-module 1 0.5 0 888;
#X obj 299 286 ca-module 1 0 0 912;
#X obj 248 354 ca-module 0.5 0 1 1029;
#X obj 63 354 ca-module 0.247 0 1 1122;
#X obj 279 -115 switch~;
#X obj 279 -141 tgl 15 0 empty empty empty 17 7 0 10 -262144 -1 -1
1 1;
#X obj 117 -130 r FromGem;
#X obj 117 -77 spigot;
#X obj 279 -167 inlet;
#X connect 0 0 7 1;
#X connect 1 0 7 0;
#X connect 1 1 2 0;
#X connect 2 0 3 0;
#X connect 3 0 2 1;
#X connect 3 0 4 0;
#X connect 5 0 6 0;
#X connect 7 0 9 0;
#X connect 9 0 8 0;
#X connect 11 0 10 0;
#X connect 11 0 12 0;
#X connect 11 0 13 0;
#X connect 11 0 14 0;
#X connect 11 0 15 0;
#X connect 11 0 16 0;
#X connect 11 0 17 0;
#X connect 19 0 18 0;
#X connect 19 0 21 1;
#X connect 20 0 21 0;
#X connect 21 0 1 0;
#X connect 22 0 19 0;
