#N canvas 23 81 528 686 10;
#X obj 167 41 gemhead;
#X obj 191 639 rectangle 4 3;
#X obj 167 385 pix_texture;
#X obj 167 21 tgl 15 0 empty empty empty 17 7 0 10 -262144 -1 -1 0
1;
#X obj 167 274 alpha;
#X obj 167 560 colourRGB 1 1 1 1;
#X floatatom 318 373 5 0 0 0 - - -;
#X floatatom 113 489 5 0 0 0 - - -;
#X floatatom 154 497 5 0 0 0 - - -;
#X floatatom 214 500 5 0 0 0 - - -;
#X obj 312 553 * 0.01;
#X floatatom 333 516 5 0 0 0 - - -;
#X obj 367 599 * -720;
#X obj 289 597 * 1280;
#X obj 167 64 t a b;
#X obj 214 189 f;
#X floatatom 214 278 12 0 0 0 - - -;
#X obj 213 209 + 1;
#X obj 167 308 pix_film Videos/globe_2.mp4;
#X obj 213 234 mod 9743;
#X obj 532 268 vsl 15 128 0.01 1 1 0 empty empty empty 0 -9 0 10 -262144
-1 -1 12700 1;
#X obj 649 255 vsl 15 128 0.01 1 1 0 empty empty empty 0 -9 0 10 -262144
-1 -1 0 1;
#X obj 649 424 expr 1 - $f1;
#X msg 530 238 1;
#X obj 763 266 vsl 15 128 0.01 1 1 0 empty empty empty 0 -9 0 10 -262144
-1 -1 0 1;
#X obj 417 258 vsl 15 128 0.01 1 1 0 empty empty empty 0 -9 0 10 -262144
-1 -1 0 1;
#X msg 649 232 0;
#X msg 760 240 0;
#X obj 881 276 vsl 15 128 0.01 1 1 0 empty empty empty 0 -9 0 10 -262144
-1 -1 0 1;
#X msg 878 250 0;
#X msg 414 228 0;
#X obj 254 -245 tgl 15 0 empty empty empty 17 7 0 10 -262144 -1 -1
0 1;
#X obj 378 500 loadbang;
#X msg 378 523 0.56;
#X obj 403 164 scopeXYZ~ 1024;
#X obj 757 166 bng 15 250 50 0 empty empty empty 17 7 0 10 -262144
-1 -1;
#X obj 167 -29 loadbang;
#X msg 167 -6 0;
#X obj 71 -263 soundfiler;
#X obj -115 -299 table coracaso-som-1 100000;
#X obj -115 -259 table coracaso-som-2 100000;
#X msg 71 -294 read -resize Sons/Spirals.wav coracaso-som-1 coracaso-som-2
;
#X obj 567 53 tabread4~ coracaso-som-1;
#X obj 572 81 tabread4~ coracaso-som-2;
#X obj 578 -29 phasor~;
#X floatatom 565 -129 5 0 0 0 - - -;
#X floatatom 654 -108 5 0 0 0 - - -;
#X obj 648 -67 * 44100;
#X obj 584 -71 * 0.001;
#X floatatom 647 -24 5 0 0 0 - - -;
#X obj 647 0 * 44100;
#X msg 526 -90 -1;
#X obj 484 142 sig~ 0;
#X obj 578 20 +~ 324136;
#X obj 403 67 translateXYZ 0 0 1;
#X obj 403 42 scaleXYZ 8 8 1;
#X obj 403 -51 r FromGem;
#X obj 578 -6 *~ 88200;
#X obj 303 -132 GemFeedback;
#X obj 303 -159 tgl 15 0 empty empty empty 17 7 0 10 -262144 -1 -1
1 1;
#X obj 567 -174 loadbang;
#X msg 567 -151 2;
#X obj 71 -327 loadbang;
#X obj 303 -217 loadbang;
#X msg 303 -194 0;
#X obj 194 90 speedlim 34.4828;
#X obj 40 432 r coracao-R;
#X obj 18 474 r coracao-G;
#X obj 14 515 r coracao-B;
#X msg 417 394 \; coracao-R \$1 \; coracao-G \$1 \; coracao-B \$1 \;
;
#X msg 532 406 \; coracao-G \$1 \; coracao-B \$1 \;;
#X obj 649 447 s coracao-R;
#X obj 657 392 s coracao-B;
#X obj 763 464 expr 1 - $f1;
#X msg 780 411 \; coracao-G \$1 \; coracao-R \$1 \;;
#X obj 763 487 s coracao-B;
#X obj 881 419 s coracao-B;
#X obj 643 139 loadbang;
#X obj 403 17 spigot;
#X obj 436 -5 tgl 15 0 empty empty empty 17 7 0 10 -262144 -1 -1 0
1;
#X connect 0 0 14 0;
#X connect 2 0 5 0;
#X connect 3 0 0 0;
#X connect 4 0 18 0;
#X connect 5 0 1 0;
#X connect 6 0 5 4;
#X connect 7 0 5 1;
#X connect 8 0 5 2;
#X connect 9 0 5 3;
#X connect 10 0 12 0;
#X connect 10 0 13 0;
#X connect 11 0 10 0;
#X connect 12 0 1 2;
#X connect 13 0 1 1;
#X connect 14 0 4 0;
#X connect 14 1 65 0;
#X connect 15 0 17 0;
#X connect 17 0 16 0;
#X connect 17 0 19 0;
#X connect 18 0 2 0;
#X connect 19 0 15 1;
#X connect 19 0 18 1;
#X connect 20 0 70 0;
#X connect 21 0 72 0;
#X connect 21 0 22 0;
#X connect 22 0 71 0;
#X connect 23 0 20 0;
#X connect 24 0 74 0;
#X connect 24 0 73 0;
#X connect 25 0 69 0;
#X connect 26 0 21 0;
#X connect 27 0 24 0;
#X connect 28 0 76 0;
#X connect 29 0 28 0;
#X connect 30 0 25 0;
#X connect 32 0 33 0;
#X connect 33 0 11 0;
#X connect 36 0 37 0;
#X connect 37 0 3 0;
#X connect 41 0 38 0;
#X connect 42 0 34 1;
#X connect 43 0 34 2;
#X connect 44 0 57 0;
#X connect 45 0 48 0;
#X connect 46 0 47 0;
#X connect 47 0 57 1;
#X connect 48 0 44 0;
#X connect 49 0 50 0;
#X connect 50 0 53 1;
#X connect 51 0 44 1;
#X connect 52 0 34 3;
#X connect 53 0 42 0;
#X connect 53 0 43 0;
#X connect 54 0 34 0;
#X connect 55 0 54 0;
#X connect 56 0 78 0;
#X connect 57 0 53 0;
#X connect 59 0 58 0;
#X connect 60 0 61 0;
#X connect 61 0 45 0;
#X connect 62 0 41 0;
#X connect 63 0 64 0;
#X connect 64 0 59 0;
#X connect 65 0 15 0;
#X connect 66 0 7 0;
#X connect 67 0 8 0;
#X connect 68 0 9 0;
#X connect 73 0 75 0;
#X connect 77 0 29 0;
#X connect 77 0 27 0;
#X connect 77 0 26 0;
#X connect 77 0 23 0;
#X connect 77 0 30 0;
#X connect 78 0 55 0;
#X connect 79 0 78 1;
