#N canvas 23 81 528 638 10;
#X obj -98 -43 gemwin;
#X msg -69 -89 0 \, destroy;
#X obj 14 49 gemhead;
#X obj 191 639 rectangle 4 3;
#X obj 32 185 bng 15 250 50 0 empty empty empty 0 -6 0 8 -262144 -1
-1;
#N canvas 0 22 450 300 openpanel 0;
#X obj 114 62 inlet;
#X obj 121 254 outlet;
#X obj 114 125 openpanel;
#X msg 114 162 set open \$1;
#X obj 114 199 t b a;
#X connect 0 0 2 0;
#X connect 2 0 3 0;
#X connect 3 0 4 0;
#X connect 4 0 1 0;
#X connect 4 1 1 0;
#X restore 32 206 pd openpanel;
#X msg 32 241 open /home/mng/Documents/FaroGig/fotos/terra.jpg;
#X obj 184 394 pix_texture;
#X obj 17 24 tgl 15 0 empty empty empty 17 7 0 10 -262144 -1 -1 0 1
;
#X obj 14 122 alpha;
#X obj 167 560 colourRGB 1 1 1 1;
#X floatatom 318 373 5 0 0 0 - - -;
#X floatatom 117 495 5 0 0 0 - - -;
#X floatatom 154 497 5 0 0 0 - - -;
#X floatatom 214 500 5 0 0 0 - - -;
#X obj 423 520 * 0.01;
#X floatatom 444 483 5 0 0 0 - - -;
#X obj 478 566 * -720;
#X obj 400 564 * 1280;
#X obj 14 72 t a b;
#X obj 111 107 f;
#X floatatom 200 109 5 0 0 0 - - -;
#X floatatom 207 192 5 0 0 0 - - -;
#X floatatom 200 43 12 0 0 0 - - -;
#X obj 110 127 + 1;
#X obj 14 286 pix_film Videos/globe_2.mp4;
#X obj 110 152 mod 9743;
#X obj 524 222 vsl 15 128 0 1 0 0 empty empty empty 0 -9 0 10 -262144
-1 -1 12700 1;
#X obj 566 220 vsl 15 128 0 1 0 0 empty empty empty 0 -9 0 10 -262144
-1 -1 0 1;
#X obj 542 385 expr 1 - $f1;
#X msg 522 192 1;
#X obj 627 208 vsl 15 128 0 1 0 0 empty empty empty 0 -9 0 10 -262144
-1 -1 0 1;
#X obj 343 245 vsl 15 128 0 1 0 0 empty empty empty 0 -9 0 10 -262144
-1 -1 12700 1;
#X msg 567 187 0;
#X obj 628 390 expr 1 - $f1;
#X msg 624 182 0;
#X obj 673 213 vsl 15 128 0 1 0 0 empty empty empty 0 -9 0 10 -262144
-1 -1 0 1;
#X msg 670 187 0;
#X msg 340 215 0;
#X msg 355 -19 draw line;
#X msg 355 21 draw fill;
#X msg 355 -42 draw point;
#X msg 355 1 draw linestrip;
#X msg 355 41 draw tri;
#X msg 355 63 draw tristrip;
#X msg 354 86 draw trifan;
#X msg 354 107 draw quad;
#X msg 354 129 draw quadstrip;
#X floatatom 475 5 5 0 10 0 - - -;
#X msg 475 21 width \$1;
#X floatatom 476 -38 5 0 100 0 - - -;
#X msg 476 -21 length \$1;
#X obj 254 -245 tgl 15 0 empty empty empty 17 7 0 10 -262144 -1 -1
0 1;
#X floatatom 325 -201 5 0 0 0 - - -;
#X floatatom 737 31 5 0 0 0 - - -;
#X obj 489 467 loadbang;
#X msg 489 490 0.56;
#X obj 403 164 scopeXYZ~ 1024;
#X msg -143 -146 reset \, dimen 800 600 \, create \, frame 30 \, 1
;
#X obj 757 166 bng 15 250 50 0 empty empty empty 17 7 0 10 -262144
-1 -1;
#X obj 17 -26 loadbang;
#X msg 17 -3 0;
#X obj 71 -263 soundfiler;
#X obj -115 -299 table coracaso-som-1 100000;
#X obj -115 -259 table coracaso-som-2 100000;
#X msg 71 -294 read -resize Sons/Spirals.wav coracaso-som-1 coracaso-som-2
;
#X obj 407 -140 tabplay~ coracaso-som-1;
#X obj 422 -95 tabplay~ coracaso-som-2;
#X obj 526 -164 bng 15 250 50 0 empty empty empty 17 7 0 10 -262144
-1 -1;
#X obj 614 -38 tabread4~ coracaso-som-1;
#X obj 619 -10 tabread4~ coracaso-som-2;
#X obj 625 -120 phasor~;
#X floatatom 612 -220 5 0 0 0 - - -;
#X floatatom 701 -199 5 0 0 0 - - -;
#X obj 695 -158 * 44100;
#X obj 631 -162 * 0.001;
#X floatatom 694 -115 5 0 0 0 - - -;
#X obj 694 -91 * 44100;
#X msg 573 -181 -1;
#X obj 681 66 osc~ 1;
#X floatatom 347 -138 5 0 0 0 - - -;
#X obj 562 123 sig~ 0;
#X obj 625 -71 +~ 324136;
#X obj 271 -105 translateXYZ 0 0 1;
#X obj 248 -149 scaleXYZ 8 8 1;
#X obj 248 -172 r FromGem;
#X obj 625 -97 *~ 88200;
#X obj 800 133 GemFeedback;
#X obj 800 106 tgl 15 0 empty empty empty 17 7 0 10 -262144 -1 -1 0
1;
#X obj 614 -265 loadbang;
#X msg 614 -242 2;
#X obj 71 -327 loadbang;
#X connect 1 0 0 0;
#X connect 2 0 19 0;
#X connect 4 0 5 0;
#X connect 5 0 6 0;
#X connect 6 0 25 0;
#X connect 7 0 10 0;
#X connect 8 0 2 0;
#X connect 9 0 25 0;
#X connect 10 0 3 0;
#X connect 11 0 10 4;
#X connect 12 0 10 1;
#X connect 13 0 10 2;
#X connect 14 0 10 3;
#X connect 15 0 17 0;
#X connect 15 0 18 0;
#X connect 16 0 15 0;
#X connect 17 0 3 2;
#X connect 18 0 3 1;
#X connect 19 0 9 0;
#X connect 19 1 20 0;
#X connect 20 0 24 0;
#X connect 21 0 26 1;
#X connect 24 0 23 0;
#X connect 24 0 26 0;
#X connect 25 0 7 0;
#X connect 26 0 20 1;
#X connect 26 0 22 0;
#X connect 26 0 25 1;
#X connect 27 0 13 0;
#X connect 27 0 14 0;
#X connect 28 0 29 0;
#X connect 28 0 14 0;
#X connect 29 0 12 0;
#X connect 30 0 27 0;
#X connect 31 0 12 0;
#X connect 31 0 13 0;
#X connect 31 0 34 0;
#X connect 32 0 12 0;
#X connect 32 0 13 0;
#X connect 32 0 14 0;
#X connect 33 0 28 0;
#X connect 34 0 14 0;
#X connect 35 0 31 0;
#X connect 36 0 14 0;
#X connect 37 0 36 0;
#X connect 38 0 32 0;
#X connect 39 0 57 0;
#X connect 40 0 57 0;
#X connect 41 0 57 0;
#X connect 42 0 57 0;
#X connect 43 0 57 0;
#X connect 44 0 57 0;
#X connect 45 0 57 0;
#X connect 46 0 57 0;
#X connect 47 0 57 0;
#X connect 48 0 49 0;
#X connect 49 0 57 0;
#X connect 50 0 51 0;
#X connect 51 0 57 0;
#X connect 53 0 84 1;
#X connect 53 0 84 2;
#X connect 54 0 79 0;
#X connect 55 0 56 0;
#X connect 56 0 16 0;
#X connect 58 0 0 0;
#X connect 60 0 61 0;
#X connect 61 0 8 0;
#X connect 65 0 62 0;
#X connect 68 0 66 0;
#X connect 68 0 67 0;
#X connect 69 0 57 1;
#X connect 70 0 57 2;
#X connect 71 0 86 0;
#X connect 72 0 75 0;
#X connect 73 0 74 0;
#X connect 74 0 86 1;
#X connect 75 0 71 0;
#X connect 76 0 77 0;
#X connect 77 0 82 1;
#X connect 78 0 71 1;
#X connect 80 0 83 1;
#X connect 80 0 83 2;
#X connect 81 0 57 3;
#X connect 82 0 69 0;
#X connect 82 0 70 0;
#X connect 83 0 57 0;
#X connect 84 0 83 0;
#X connect 85 0 84 0;
#X connect 86 0 82 0;
#X connect 88 0 87 0;
#X connect 89 0 90 0;
#X connect 90 0 72 0;
#X connect 91 0 65 0;
