#N canvas 468 245 897 522 10;
#X floatatom 237 119 0 0 120 0 - - -;
#X text 278 119 level \, dB;
#X floatatom 272 141 0 0 100 0 - - -;
#X text 313 141 liveness \, 0-100;
#X floatatom 320 298 12 0 5000 0 - - -;
#X floatatom 355 321 0 0 100 0 - - -;
#X text 397 301 crossover frequency \, Hz.;
#X text 391 323 HF damping \, percent;
#X obj 180 347 rev3~ 100 90 3000 20;
#X obj 189 12 adc~;
#X obj 180 399 dac~;
#X obj 210 40 hip~ 30;
#X obj 143 50 hip~ 30;
#X obj 427 29 vsl 15 128 0 99.9 0 0 empty empty empty 0 -9 0 10 -262144
-1 -1 0 1;
#X obj 325 238 mtof;
#X floatatom 330 210 5 0 0 0 - - -;
#X obj 573 250 freeverb~;
#X msg 662 52 roomsize \$1;
#X msg 662 74 damping \$1;
#X msg 662 96 width \$1;
#X msg 662 118 wet \$1;
#X msg 662 140 dry \$1;
#X msg 662 162 print;
#X msg 662 184 freeze \$1;
#X msg 662 206 bypass \$1;
#X text 725 161 - print the current values of the above parameters
;
#X text 738 184 - start/stop freeze of reverb tail \, using 1 or 0
;
#X text 742 205 - bypass the reverb processing \, using a 1 or 0;
#X text 723 139 - level of unprocessed signal \, between 0 and 1 (default:
0);
#X text 727 118 - level of reverbed signal \, between 0 and 1 (default:
0.3);
#X text 749 73 - amount of damping of room's surfaces (default: 0.5)
;
#X text 731 97 - stereo width of reverb (default: 1);
#X text 753 51 - size of the room to be simulated (default=0.85);
#X obj 15 246 explosion;
#X obj 13 185 bng 55 250 50 0 empty empty empty 17 7 0 10 -258113 -1
-1;
#X connect 0 0 8 2;
#X connect 2 0 8 3;
#X connect 4 0 8 4;
#X connect 5 0 8 5;
#X connect 8 0 10 0;
#X connect 8 1 10 1;
#X connect 9 0 12 0;
#X connect 9 1 11 0;
#X connect 11 0 8 1;
#X connect 12 0 8 0;
#X connect 13 0 2 0;
#X connect 14 0 4 0;
#X connect 15 0 14 0;
#X connect 33 0 10 0;
#X connect 33 0 10 1;
#X connect 34 0 33 0;
