#N canvas 25 268 841 354 10;
#X msg 112 176 0 \, destroy;
#X obj 83 222 gemwin 60;
#X msg 39 120 reset \, dimen 800 600 \, offset 1366 1 \, border 0 \,
FSAA 4 \, frame 60 \, create \, 1;
#X obj 203 258 GemFeedback;
#X obj 203 231 tgl 15 0 empty empty empty 17 7 0 10 -262144 -1 -1 1
1;
#X obj 203 173 loadbang;
#X msg 203 196 0;
#X obj 525 204 coracao;
#X connect 0 0 1 0;
#X connect 2 0 1 0;
#X connect 4 0 3 0;
#X connect 5 0 6 0;
#X connect 6 0 4 0;
