#N canvas 1 413 841 354 10;
#X msg 68 265 0 \, destroy;
#X obj 39 311 gemwin 60;
#X msg 39 60 reset \, dimen 800 600 \, offset 1366 1 \, border 0 \,
FSAA 4 \, frame 60 \, create \, 1;
#X obj 213 308 GemFeedback;
#X obj 213 281 tgl 15 0 empty empty empty 17 7 0 10 -262144 -1 -1 1
1;
#X obj 213 223 loadbang;
#X msg 213 246 0;
#X obj 695 82 coracao;
#X msg 50 100 reset \, dimen 800 600 \, FSAA 4 \, frame 60 \, create
\, 1;
#X obj 323 224 adc~;
#X obj 322 248 +~;
#X obj 322 271 send~ SoundInputMono;
#X obj 622 79 caminho;
#X obj 622 58 tgl 15 0 empty empty empty 17 7 0 10 -262144 -1 -1 0
1;
#X obj 697 56 tgl 15 0 empty empty empty 17 7 0 10 -262144 -1 -1 0
1;
#X obj 736 58 tgl 15 0 empty empty empty 17 7 0 10 -262144 -1 -1 0
1;
#X obj 624 116 vende;
#X obj 669 109 fazer_amor;
#X obj 320 304 table cores 12;
#X obj 291 141 loadbang;
#X msg 291 163 \; cores read cores.txt;
#X obj 268 286 tgl 15 0 empty empty empty 17 7 0 10 -262144 -1 -1 0
1;
#X floatatom 442 345 5 0 0 0 - - -;
#X floatatom 648 347 5 0 0 0 - - -;
#X text 441 363 pitch;
#X text 625 366 envelope;
#X obj 442 319 sigmund~ -hop 4096 pitch env;
#X obj 626 149 AEIOU;
#X connect 0 0 1 0;
#X connect 2 0 1 0;
#X connect 4 0 3 0;
#X connect 5 0 6 0;
#X connect 6 0 4 0;
#X connect 8 0 1 0;
#X connect 9 0 10 0;
#X connect 9 1 10 1;
#X connect 10 0 11 0;
#X connect 13 0 12 0;
#X connect 14 0 7 0;
#X connect 15 0 7 1;
#X connect 19 0 20 0;
#X connect 21 0 3 1;
#X connect 26 0 22 0;
#X connect 26 1 23 0;
