#N canvas 1 81 595 634 10;
#X msg 91 550 0 \, destroy;
#X obj 177 126 gemhead;
#X obj 348 596 rectangle 4 3;
#X obj 177 149 t a b;
#X obj 397 92 spigot;
#X obj 446 51 tgl 15 0 empty empty empty 17 7 0 10 -262144 -1 -1 0
1;
#X obj 372 507 translateXYZ 0 0 0;
#X obj 375 2 tgl 15 0 empty empty empty 17 7 0 10 -262144 -1 -1 0 1
;
#X obj 235 304 hsv2rgb;
#X obj 235 327 unpack f f f;
#X obj 252 184 random 12;
#X obj 256 233 / 12;
#X obj 185 366 colourRGB 1 1 1 1;
#X obj 397 115 t b b b b b b;
#X obj 336 189 random 1000;
#X obj 336 212 / 1000;
#X obj 253 258 pack f f 1;
#X obj 708 62 gemhead;
#X obj 861 473 rectangle 4 3;
#X obj 708 85 t a b;
#X obj 946 154 spigot;
#X obj 995 113 tgl 15 0 empty empty empty 17 7 0 10 -262144 -1 -1 0
1;
#X obj 885 384 translateXYZ 0 0 0;
#X obj 758 315 hsv2rgb;
#X obj 758 338 unpack f f f;
#X obj 755 244 / 12;
#X obj 708 377 colourRGB 1 1 1 1;
#X obj 946 177 t b b b b b b;
#X obj 839 217 random 1000;
#X obj 839 240 / 1000;
#X obj 776 269 pack f f 1;
#X obj 377 26 t f f;
#X obj 867 74 tgl 15 0 empty empty empty 17 7 0 10 -262144 -1 -1 0
1;
#X obj 869 98 t f f;
#X obj 183 274 s amorCor;
#X obj 752 128 r amorCor;
#X obj 752 151 + 6;
#X obj 752 174 mod 12;
#X obj 389 -117 table fazer_amor 10000;
#X obj 254 -100 metro 100;
#X obj 253 -135 tgl 15 0 empty empty empty 17 7 0 10 -262144 -1 -1
1 1;
#X obj 299 -54 f;
#X obj 299 -8 mod 10000;
#X obj 209 46 tabwrite fazer_amor;
#X obj 241 -24 tgl 15 0 empty empty empty 17 7 0 10 -262144 -1 -1 0
1;
#X obj 383 -34 tabread fazer_amor;
#X obj 299 -31 + 1;
#X obj 209 -4 f;
#X obj 254 -77 t b b;
#X obj 295 22 t f f f;
#X obj 394 -64 - 1;
#X obj 62 596 gemwin 30;
#X msg 15 495 reset \, dimen 800 600 \, frame 30 \, create \, 1;
#X floatatom 325 -201 5 0 0 0 - - -;
#X obj 171 -210 loadbang;
#X msg 171 -188 \; cores read cores.txt;
#X obj 385 -154 table cores 12;
#X obj 751 218 tabread cores;
#X obj 256 211 tabread cores;
#X obj 578 291 * 2;
#X obj 578 245 random 34;
#X obj 578 269 / 34;
#X obj 648 245 random 34;
#X obj 648 268 / 34;
#X obj 1055 250 random 34;
#X obj 1055 273 / 34;
#X obj 1134 260 random 34;
#X obj 1134 283 / 34;
#X obj 1134 306 * 2;
#X obj 648 291 * 6;
#X obj 1056 295 * 6;
#X obj 399 247 random 34;
#X obj 399 271 / 34;
#X obj 469 248 random 34;
#X obj 469 272 / 34;
#X floatatom 495 -59 5 0 0 0 - - -;
#X obj 399 293 * 10;
#X obj 399 335 - 5;
#X obj 469 294 * 10;
#X obj 466 328 - 5;
#X obj 914 237 random 34;
#X obj 914 261 / 34;
#X obj 914 283 * 10;
#X obj 911 317 - 5;
#X obj 978 238 random 34;
#X obj 978 262 / 34;
#X obj 978 284 * 10;
#X obj 975 318 - 5;
#X connect 0 0 51 0;
#X connect 1 0 3 0;
#X connect 3 0 12 0;
#X connect 3 1 4 0;
#X connect 4 0 13 0;
#X connect 5 0 4 1;
#X connect 6 0 2 0;
#X connect 7 0 31 0;
#X connect 7 0 32 0;
#X connect 8 0 9 0;
#X connect 9 0 12 1;
#X connect 9 1 12 2;
#X connect 9 2 12 3;
#X connect 10 0 34 0;
#X connect 10 0 58 0;
#X connect 11 0 16 0;
#X connect 12 0 6 0;
#X connect 13 0 10 0;
#X connect 13 1 14 0;
#X connect 13 2 71 0;
#X connect 13 3 73 0;
#X connect 13 4 60 0;
#X connect 13 5 62 0;
#X connect 14 0 15 0;
#X connect 15 0 16 1;
#X connect 16 0 8 0;
#X connect 17 0 19 0;
#X connect 19 0 26 0;
#X connect 19 1 20 0;
#X connect 20 0 27 0;
#X connect 21 0 20 1;
#X connect 22 0 18 0;
#X connect 23 0 24 0;
#X connect 24 0 26 1;
#X connect 24 1 26 2;
#X connect 24 2 26 3;
#X connect 25 0 30 0;
#X connect 26 0 22 0;
#X connect 27 1 28 0;
#X connect 27 2 80 0;
#X connect 27 3 84 0;
#X connect 27 4 64 0;
#X connect 27 5 66 0;
#X connect 28 0 29 0;
#X connect 29 0 30 1;
#X connect 30 0 23 0;
#X connect 31 0 1 0;
#X connect 31 1 5 0;
#X connect 32 0 33 0;
#X connect 33 0 17 0;
#X connect 33 1 21 0;
#X connect 35 0 36 0;
#X connect 36 0 37 0;
#X connect 37 0 57 0;
#X connect 39 0 48 0;
#X connect 40 0 39 0;
#X connect 41 0 46 0;
#X connect 42 0 49 0;
#X connect 44 0 47 1;
#X connect 45 0 7 0;
#X connect 46 0 42 0;
#X connect 47 0 43 0;
#X connect 48 0 47 0;
#X connect 48 1 41 0;
#X connect 49 0 41 1;
#X connect 49 1 50 0;
#X connect 49 2 43 1;
#X connect 50 0 45 0;
#X connect 52 0 51 0;
#X connect 54 0 55 0;
#X connect 57 0 25 0;
#X connect 58 0 11 0;
#X connect 59 0 2 1;
#X connect 60 0 61 0;
#X connect 61 0 59 0;
#X connect 62 0 63 0;
#X connect 63 0 69 0;
#X connect 64 0 65 0;
#X connect 65 0 70 0;
#X connect 66 0 67 0;
#X connect 67 0 68 0;
#X connect 68 0 18 2;
#X connect 69 0 2 2;
#X connect 70 0 18 1;
#X connect 71 0 72 0;
#X connect 72 0 76 0;
#X connect 73 0 74 0;
#X connect 74 0 78 0;
#X connect 76 0 77 0;
#X connect 77 0 6 1;
#X connect 78 0 79 0;
#X connect 79 0 6 2;
#X connect 80 0 81 0;
#X connect 81 0 82 0;
#X connect 82 0 83 0;
#X connect 83 0 22 1;
#X connect 84 0 85 0;
#X connect 85 0 86 0;
#X connect 86 0 87 0;
#X connect 87 0 22 2;
