#N canvas 1 96 516 652 10;
#X obj 98 278 translateXYZ 0 0 -4;
#X obj 98 347 pix_texture;
#X obj 273 253 pix_texture;
#X obj 489 547 pix_texture;
#X obj 489 580 rectangle 4 4;
#X obj 98 253 gemframebuffer;
#X obj 273 185 gemframebuffer;
#X msg 158 76 quality 1;
#X obj 231 37 loadbang;
#X text 578 578 <- get the result in a rectangle;
#X msg 158 -13 1;
#X obj 158 11 change;
#X msg 158 34 1000;
#X obj 158 55 delay;
#X obj 98 219 gemhead 6;
#X obj 273 108 gemhead 7;
#X obj 489 508 gemhead 8;
#X floatatom 676 196 5 0 0 0 - - -;
#X text 719 195 <- change the value with shift key;
#X obj 273 210 translateXYZ 0 0 -4;
#X obj 670 161 * 0.01;
#X floatatom 668 129 5 0 0 0 - - -;
#X floatatom 443 152 5 0 0 0 - - -;
#X obj 273 162 alpha;
#X obj 273 278 translateXYZ 0 0 0.005;
#X obj 273 327 t a b;
#X floatatom 533 211 5 0 0 0 - - -;
#X obj 5 357 s FromGem;
#X obj 273 367 rotateXYZ 0 0 0;
#X floatatom 484 156 5 0 0 0 - - -;
#X floatatom 540 158 5 0 0 0 - - -;
#X obj 597 518 * 800;
#X obj 643 519 * 600;
#X floatatom 635 441 5 0 0 0 - - -;
#X obj 636 478 * 0.001;
#X obj 325 -70 inlet;
#X obj 325 -47 s FBtgl;
#X obj 158 -62 r FBtgl;
#X obj 490 479 r FBtgl;
#X obj 273 86 r FBtgl;
#X obj 98 194 r FBtgl;
#X obj 664 370 loadbang;
#X msg 664 393 6.66;
#X msg 231 60 dimen 800 600;
#X obj 158 511 * 800;
#X obj 204 512 * 600;
#X floatatom 196 434 5 0 0 0 - - -;
#X obj 197 471 * 0.001;
#X obj 201 378 loadbang;
#X msg 201 401 6.66;
#X floatatom 380 412 5 0 0 0 - - -;
#X obj 273 455 rectangle 4.01 4.01;
#X obj 158 -35 gemhead 20;
#X obj 96 447 rectangle 4 4;
#X obj 273 307 colorRGB 0.991 0.991 0.991 0.956;
#X obj 508 81 hsv2rgb;
#X obj 508 104 unpack f f f;
#X obj 273 131 t a b;
#X obj 360 -14 f;
#X obj 360 9 + 1;
#X floatatom 442 -3 5 0 0 0 - - -;
#X obj 619 245 vsl 15 128 0 1 0 0 empty empty empty 0 -9 0 10 -262144
-1 -1 1791 1;
#X obj 551 -62 inlet Muda cor Feedback;
#X obj 360 32 mod 2000;
#X obj 367 56 / 2000;
#X msg 508 53 \$1 1 1;
#X obj 367 79 spigot;
#X obj 423 68 tgl 15 0 empty empty empty 17 7 0 10 -262144 -1 -1 0
1;
#X obj 574 20 sel 0;
#X obj 551 -39 t f f;
#X msg 576 53 0.991 0.991 0.991 0.956;
#X obj 554 273 vsl 15 128 0 1 0 0 empty empty empty 0 -9 0 10 -262144
-1 -1 10400 1;
#X connect 0 0 1 0;
#X connect 0 0 27 0;
#X connect 1 0 53 0;
#X connect 2 0 24 0;
#X connect 2 1 3 1;
#X connect 3 0 4 0;
#X connect 5 0 0 0;
#X connect 5 1 2 1;
#X connect 6 0 19 0;
#X connect 6 1 1 1;
#X connect 7 0 1 0;
#X connect 7 0 2 0;
#X connect 8 0 43 0;
#X connect 10 0 11 0;
#X connect 11 0 12 0;
#X connect 12 0 13 0;
#X connect 13 0 7 0;
#X connect 14 0 5 0;
#X connect 15 0 57 0;
#X connect 16 0 3 0;
#X connect 17 0 24 3;
#X connect 19 0 2 0;
#X connect 20 0 17 0;
#X connect 21 0 20 0;
#X connect 22 0 54 1;
#X connect 23 0 6 0;
#X connect 24 0 54 0;
#X connect 25 0 28 0;
#X connect 26 0 54 4;
#X connect 28 0 51 0;
#X connect 29 0 54 2;
#X connect 30 0 54 3;
#X connect 31 0 4 1;
#X connect 32 0 4 2;
#X connect 33 0 34 0;
#X connect 34 0 32 0;
#X connect 34 0 31 0;
#X connect 35 0 36 0;
#X connect 37 0 52 0;
#X connect 38 0 16 0;
#X connect 39 0 15 0;
#X connect 40 0 14 0;
#X connect 41 0 42 0;
#X connect 42 0 33 0;
#X connect 43 0 5 0;
#X connect 43 0 6 0;
#X connect 46 0 47 0;
#X connect 47 0 45 0;
#X connect 47 0 44 0;
#X connect 48 0 49 0;
#X connect 49 0 46 0;
#X connect 50 0 51 1;
#X connect 50 0 51 2;
#X connect 52 0 10 0;
#X connect 54 0 25 0;
#X connect 55 0 56 0;
#X connect 56 0 22 0;
#X connect 56 1 29 0;
#X connect 56 2 30 0;
#X connect 57 0 23 0;
#X connect 57 1 58 0;
#X connect 58 0 59 0;
#X connect 59 0 58 1;
#X connect 59 0 63 0;
#X connect 60 0 63 1;
#X connect 60 0 64 1;
#X connect 62 0 69 0;
#X connect 63 0 64 0;
#X connect 64 0 66 0;
#X connect 65 0 55 0;
#X connect 66 0 61 0;
#X connect 66 0 65 0;
#X connect 67 0 66 1;
#X connect 68 0 70 0;
#X connect 69 0 68 0;
#X connect 69 1 67 0;
#X connect 70 0 56 0;
#X connect 71 0 26 0;
