#N canvas 1 81 516 652 10;
#X obj 148 233 translateXYZ 0 0 -4;
#X obj 148 302 pix_texture;
#X obj 273 253 pix_texture;
#X msg 30 49 0 \, destroy;
#X obj 489 547 pix_texture;
#X obj 489 580 rectangle 4 4;
#X obj 148 208 gemframebuffer;
#X obj 273 185 gemframebuffer;
#X msg 179 124 quality 1;
#X msg 19 27 create \, 1;
#X obj 282 20 loadbang;
#X text 578 578 <- get the result in a rectangle;
#X obj 179 13 gemhead;
#X msg 179 35 1;
#X obj 179 59 change;
#X msg 179 82 1000;
#X obj 179 103 delay;
#X obj 148 174 gemhead 6;
#X obj 273 131 gemhead 7;
#X obj 489 508 gemhead 8;
#X floatatom 676 196 5 0 0 0 - - -;
#X text 719 195 <- change the value with shift key;
#X obj 273 210 translateXYZ 0 0 -4;
#X obj 670 161 * 0.01;
#X floatatom 668 129 5 0 0 0 - - -;
#X floatatom 443 152 5 0 0 0 - - -;
#X msg 77 83 FSAA 4;
#X obj 19 75 gemwin 60;
#X obj 273 151 alpha;
#X obj 273 278 translateXYZ 0 0 0.005;
#X obj 273 327 t a b;
#X floatatom 533 211 5 0 0 0 - - -;
#X obj 5 357 s FromGem;
#X obj 273 367 rotateXYZ 0 0 0;
#X floatatom 484 156 5 0 0 0 - - -;
#X floatatom 540 158 5 0 0 0 - - -;
#X obj 597 518 * 800;
#X obj 643 519 * 600;
#X floatatom 635 441 5 0 0 0 - - -;
#X obj 636 478 * 0.001;
#X obj 273 307 colorRGB 0.991 0.991 0.991 0.955;
#X obj 492 11 inlet;
#X obj 492 34 s FBtgl;
#X obj 176 -14 r FBtgl;
#X obj 490 479 r FBtgl;
#X obj 275 101 r FBtgl;
#X obj 149 144 r FBtgl;
#X obj 664 370 loadbang;
#X msg 664 393 6.66;
#X msg 348 6 dimen 512 512;
#X msg 282 43 dimen 800 600;
#X obj 158 511 * 800;
#X obj 204 512 * 600;
#X floatatom 196 434 5 0 0 0 - - -;
#X obj 197 471 * 0.001;
#X obj 201 378 loadbang;
#X msg 201 401 6.66;
#X obj 96 447 rectangle 4 4;
#X floatatom 380 412 5 0 0 0 - - -;
#X obj 273 455 rectangle 4.01 4.01;
#X connect 0 0 1 0;
#X connect 0 0 32 0;
#X connect 1 0 57 0;
#X connect 2 0 29 0;
#X connect 2 1 4 1;
#X connect 3 0 27 0;
#X connect 4 0 5 0;
#X connect 6 0 0 0;
#X connect 6 1 2 1;
#X connect 7 0 22 0;
#X connect 7 1 1 1;
#X connect 8 0 1 0;
#X connect 8 0 2 0;
#X connect 9 0 27 0;
#X connect 10 0 50 0;
#X connect 12 0 13 0;
#X connect 13 0 14 0;
#X connect 14 0 15 0;
#X connect 15 0 16 0;
#X connect 16 0 8 0;
#X connect 17 0 6 0;
#X connect 18 0 28 0;
#X connect 19 0 4 0;
#X connect 20 0 29 3;
#X connect 22 0 2 0;
#X connect 23 0 20 0;
#X connect 24 0 23 0;
#X connect 25 0 40 1;
#X connect 26 0 27 0;
#X connect 28 0 7 0;
#X connect 29 0 40 0;
#X connect 30 0 33 0;
#X connect 31 0 40 4;
#X connect 33 0 59 0;
#X connect 34 0 40 2;
#X connect 35 0 40 3;
#X connect 36 0 5 1;
#X connect 37 0 5 2;
#X connect 38 0 39 0;
#X connect 39 0 37 0;
#X connect 39 0 36 0;
#X connect 40 0 30 0;
#X connect 41 0 42 0;
#X connect 43 0 12 0;
#X connect 44 0 19 0;
#X connect 45 0 18 0;
#X connect 46 0 17 0;
#X connect 47 0 48 0;
#X connect 48 0 38 0;
#X connect 50 0 6 0;
#X connect 50 0 7 0;
#X connect 51 0 57 1;
#X connect 52 0 57 2;
#X connect 53 0 54 0;
#X connect 54 0 52 0;
#X connect 54 0 51 0;
#X connect 55 0 56 0;
#X connect 56 0 53 0;
#X connect 58 0 59 1;
#X connect 58 0 59 2;
