#N canvas 1 153 625 556 10;
#X obj 163 19 part_head;
#X obj 163 73 part_color;
#X obj 265 -18 loadbang;
#X obj 163 247 part_info, f 24;
#X obj 19 575 separator;
#X obj 19 601 translate 1 0 0 0;
#X msg 288 465 \$1 \$2 0, f 8;
#X obj 215 705 prepend text;
#X obj 17 625 colour;
#X floatatom 269 140 5 0 0 0 - - -;
#X obj 163 180 part_source 0.01;
#X obj 509 -63 vsl 15 128 0 1.5 0 0 empty empty empty 0 -9 0 10 -262144
-1 -1 5900 1;
#X msg 317 20 1 1 1;
#X msg 240 18 0 0 0;
#X obj 394 -24 bng 15 250 50 0 empty empty empty 17 7 0 10 -262144
-1 -1;
#X msg 371 20 1 1 0;
#X obj 339 -22 bng 15 250 50 0 empty empty empty 17 7 0 10 -262144
-1 -1;
#X msg 421 21 1 0 0;
#X obj 18 789 text3d;
#X obj 130 767 loadbang;
#X msg 130 790 4;
#X obj 163 99 part_velocity sphere 0 0 0.25 0.25;
#X obj 17 736 rotateXYZ;
#X obj 95 669 / 160;
#X obj 95 692 * 360;
#X obj 128 628 mod 160;
#X obj 163 -140 r FromGem;
#X obj 251 538 sel 0 1;
#X obj 250 514 mod 2;
#X obj 163 211 part_killold 200;
#X msg 6 373 0;
#X obj 163 -48 spigot;
#X obj 196 -75 tgl 15 0 empty empty empty 17 7 0 10 -262144 -1 -1 0
1;
#X obj 18 336 sel 0;
#X obj 24 246 change;
#X obj 509 96 sel 0;
#X obj 509 73 > 0;
#X msg 27 278 1 \, 0 400;
#X obj 196 -99 r IAO-Switch-\$0;
#X obj 486 122 s IAO-Switch-\$0;
#X obj -1 404 s IAO-Switch-\$0;
#X obj 186 312 t f f f;
#X obj 17 312 line;
#X obj 358 -130 inlet cor 1;
#X obj 437 -130 inlet cor 2;
#X obj 519 -130 inlet Intecidade;
#X obj 221 642 symbol \$1;
#X obj 290 642 symbol \$2;
#X connect 0 0 1 0;
#X connect 1 0 21 0;
#X connect 2 0 12 0;
#X connect 2 0 13 0;
#X connect 3 0 4 0;
#X connect 3 1 41 0;
#X connect 3 2 6 0;
#X connect 3 3 8 1;
#X connect 4 0 5 0;
#X connect 5 0 8 0;
#X connect 6 0 5 2;
#X connect 7 0 18 0;
#X connect 8 0 22 0;
#X connect 9 0 10 1;
#X connect 10 0 29 0;
#X connect 11 0 9 0;
#X connect 11 0 36 0;
#X connect 12 0 1 2;
#X connect 13 0 1 1;
#X connect 14 0 15 0;
#X connect 14 0 17 0;
#X connect 15 0 1 1;
#X connect 16 0 13 0;
#X connect 16 0 12 0;
#X connect 17 0 1 2;
#X connect 19 0 20 0;
#X connect 20 0 18 1;
#X connect 21 0 10 0;
#X connect 22 0 18 0;
#X connect 23 0 24 0;
#X connect 24 0 22 3;
#X connect 25 0 23 0;
#X connect 26 0 31 0;
#X connect 27 0 46 0;
#X connect 27 1 47 0;
#X connect 28 0 27 0;
#X connect 29 0 3 0;
#X connect 30 0 40 0;
#X connect 31 0 0 0;
#X connect 32 0 31 1;
#X connect 33 0 30 0;
#X connect 34 0 37 0;
#X connect 35 1 39 0;
#X connect 36 0 35 0;
#X connect 37 0 42 0;
#X connect 38 0 32 0;
#X connect 41 0 34 0;
#X connect 41 1 25 0;
#X connect 41 2 28 0;
#X connect 42 0 33 0;
#X connect 43 0 1 1;
#X connect 44 0 1 2;
#X connect 45 0 11 0;
#X connect 46 0 7 0;
#X connect 47 0 7 0;
