#N canvas 1 81 1030 602 10;
#X obj 451 53 gemhead;
#X text 505 47 open a supported;
#X text 506 58 movie-clip;
#X obj 471 367 unpack 0 0 0 0;
#X floatatom 466 390 5 0 0 3 length - -;
#X floatatom 515 390 5 0 0 3 width - -;
#X floatatom 565 390 5 0 0 3 height - -;
#X obj 431 571 rectangle 4 3;
#X obj 451 331 pix_movie;
#X floatatom 615 390 5 0 0 3 fps - -;
#X obj 70 293 gemwin;
#X msg 609 210 open Videos/life_go.mp4;
#X msg 99 247 0 \, destroy;
#X msg 25 190 create \, frame 30 \, 1;
#X obj 485 132 f;
#X obj 485 155 + 1;
#X obj 485 178 mod 6941;
#X obj 451 76 t a b;
#X obj 478 528 * 4;
#X obj 530 525 * 3;
#X floatatom 514 463 5 0 0 0 - - -;
#X obj 514 485 * 0.01;
#X obj 609 186 loadbang;
#X connect 0 0 17 0;
#X connect 3 0 4 0;
#X connect 3 1 5 0;
#X connect 3 2 6 0;
#X connect 3 3 9 0;
#X connect 8 0 7 0;
#X connect 8 1 3 0;
#X connect 11 0 8 0;
#X connect 12 0 10 0;
#X connect 13 0 10 0;
#X connect 14 0 15 0;
#X connect 15 0 16 0;
#X connect 16 0 14 1;
#X connect 16 0 8 1;
#X connect 17 0 8 0;
#X connect 17 1 14 0;
#X connect 18 0 7 1;
#X connect 19 0 7 2;
#X connect 20 0 21 0;
#X connect 21 0 18 0;
#X connect 21 0 19 0;
#X connect 22 0 11 0;
