#N canvas 435 81 752 657 10;
#X obj 279 -1 gemhead;
#X msg 254 101 print;
#X obj 299 403 glsl_program;
#X obj 372 302 pack 0 0;
#X msg 256 183 print;
#X obj 393 282 t b f;
#X obj 393 237 change;
#X obj 371 142 change;
#X msg 372 325 link \$1 \$2;
#X msg 323 374 print;
#X floatatom 393 263 2 0 0 0 ID - -;
#X floatatom 371 165 2 0 0 0 ID - -;
#X obj 390 346 print linking;
#X obj 299 217 glsl_fragment;
#X obj 299 123 glsl_vertex;
#X obj 254 578 pix_texture;
#X obj 349 80 bng 15 250 50 0 empty empty empty 0 -6 0 8 -262144 -1
-1;
#X obj 304 529 tgl 15 0 empty empty empty 17 7 0 10 -262144 -1 -1 0
1;
#X floatatom 586 373 5 0 0 0 - - -;
#X msg 304 507 0;
#N canvas 0 0 450 300 load_shader 0;
#X obj 89 99 t b b;
#X msg 119 126 0;
#X obj 89 154 outlet;
#X obj 89 71 gemhead 1;
#X connect 0 0 2 0;
#X connect 0 1 1 0;
#X connect 1 0 3 0;
#X connect 3 0 0 0;
#X restore 349 59 pd load_shader;
#N canvas 1 81 450 300 init_shader 0;
#X obj 89 154 outlet;
#X obj 89 45 inlet;
#X obj 89 73 change;
#X obj 89 100 t b;
#X connect 1 0 2 0;
#X connect 2 0 3 0;
#X connect 3 0 0 0;
#X restore 380 426 pd init_shader;
#X obj 304 486 loadbang;
#X msg 586 394 K1 \$1;
#X msg 586 348 1;
#X msg 313 101 open T_distord.vert;
#X msg 310 187 open T_distord.frag;
#X obj 253 627 rectangle 4 4;
#X msg 304 549 rectangle \$1;
#X obj 299 452 pix_image fotos/poesia_1.jpg;
#X obj 492 594 * 3264;
#X obj 582 604 * 1836;
#X obj 513 519 * 0.001;
#X floatatom 513 492 5 0 0 0 - - -;
#X obj 537 179 line 0 20;
#X obj 550 438 loadbang;
#X msg 550 461 1.44;
#X obj 299 43 alpha;
#X obj 279 -29 tgl 15 0 empty empty empty 17 7 0 10 -262144 -1 -1 1
1;
#X obj 90 70 bng 15 250 50 0 empty empty empty 17 7 0 10 -262144 -1
-1;
#X obj 90 90 s Poesia-Go;
#X obj 158 379 r Poesia-Go;
#X obj 553 61 r Poesia-Go;
#X msg 569 150 stop;
#X msg 551 93 50 \, 0 180000;
#X obj 81 797 bng 15 250 50 0 empty empty empty 17 7 0 10 -262144 -1
-1;
#X obj 92 715 square 5;
#X obj 86 622 alpha;
#X obj 88 650 translateXYZ 0 0 1;
#X obj 92 692 colourRGB 0 0 0 1;
#X floatatom 248 688 5 0 0 0 - - -;
#X obj 86 599 gemhead 60;
#X obj 162 506 line 0 20;
#X msg 169 412 1 \, 0 180000;
#X obj 152 553 *;
#X msg 73 417 1;
#X obj 73 384 loadbang;
#X obj 279 -74 loadbang;
#X msg 279 -51 0;
#X connect 0 0 37 0;
#X connect 1 0 14 0;
#X connect 2 0 29 0;
#X connect 2 1 21 0;
#X connect 3 0 8 0;
#X connect 4 0 13 0;
#X connect 5 0 3 0;
#X connect 5 1 3 1;
#X connect 6 0 10 0;
#X connect 7 0 11 0;
#X connect 8 0 2 0;
#X connect 8 0 12 0;
#X connect 9 0 2 0;
#X connect 10 0 5 0;
#X connect 11 0 3 0;
#X connect 13 0 2 0;
#X connect 13 1 6 0;
#X connect 14 0 13 0;
#X connect 14 1 7 0;
#X connect 15 0 27 0;
#X connect 16 0 25 0;
#X connect 16 0 26 0;
#X connect 17 0 28 0;
#X connect 18 0 23 0;
#X connect 19 0 17 0;
#X connect 20 0 16 0;
#X connect 21 0 24 0;
#X connect 22 0 19 0;
#X connect 23 0 2 0;
#X connect 24 0 18 0;
#X connect 25 0 14 0;
#X connect 26 0 13 0;
#X connect 28 0 15 0;
#X connect 29 0 15 0;
#X connect 30 0 27 1;
#X connect 31 0 27 2;
#X connect 32 0 30 0;
#X connect 32 0 31 0;
#X connect 33 0 32 0;
#X connect 34 0 18 0;
#X connect 35 0 36 0;
#X connect 36 0 33 0;
#X connect 37 0 14 0;
#X connect 38 0 0 0;
#X connect 39 0 40 0;
#X connect 41 0 53 0;
#X connect 42 0 44 0;
#X connect 43 0 34 0;
#X connect 44 0 34 0;
#X connect 47 0 48 0;
#X connect 48 0 49 0;
#X connect 49 0 46 0;
#X connect 51 0 47 0;
#X connect 52 0 54 0;
#X connect 52 0 54 1;
#X connect 53 0 52 0;
#X connect 54 0 49 4;
#X connect 54 0 50 0;
#X connect 55 0 52 0;
#X connect 56 0 55 0;
#X connect 57 0 58 0;
#X connect 58 0 38 0;
