#N canvas 55 244 475 266 10;
#N canvas 1 166 806 601 VENDE 0;
#X obj 186 77 gemhead;
#X obj 186 121 part_head;
#X text 310 269 set the number per frame;
#X text 309 379 set the age to kill at;
#X text 358 207 the velocity domain;
#X msg 188 390 draw line;
#X msg 267 390 draw point;
#X text 356 241 radius = 0.2;
#X floatatom 375 301 0 0 0 0 - - -;
#X text 390 333 orbit point and gravity;
#X text 355 224 a sphere at 0 0 0;
#X text 415 299 keep the gravity low;
#X obj 162 361 t a b;
#X floatatom 368 129 5 0 0 0 - - -;
#X floatatom 304 230 5 0 0 0 - - -;
#X floatatom 268 306 5 0 0 0 - - -;
#X obj 198 270 part_source 0.01;
#X msg 368 154 0 0 \$1 \$1;
#X obj 587 89 vsl 15 128 0 1.5 0 0 empty empty empty 0 -9 0 10 -262144
-1 -1 10800 1;
#X obj 182 330 part_killold 250;
#X obj 165 33 tgl 15 0 empty empty empty 17 7 0 10 -262144 -1 -1 0
1;
#X obj 148 -16 loadbang;
#X msg 148 7 0;
#X obj 168 423 part_render, f 24;
#X obj 161 472 pix_image fotos/Heart.svg;
#X obj 168 446 alpha;
#X msg 273 62 speed \$1;
#X floatatom 286 41 5 0 0 0 - - -;
#X floatatom 82 337 5 0 0 0 - - -;
#X obj 194 643 colourRGB 1 1 1 1;
#X floatatom 359 625 5 0 0 0 - - -;
#X obj 194 605 pix_texture;
#X msg 348 576 quality 0;
#X obj 462 578 loadbang;
#X obj 37 253 loadbang;
#X msg 37 276 7;
#X floatatom 298 667 5 0 0 0 - - -;
#X obj 186 682 square 0.3;
#X obj 179 182 part_velocity sphere 0 0 0.06 0.06;
#X obj 597 19 loadbang;
#X floatatom 644 77 5 0 0 0 - - -;
#X msg 597 42 0.01;
#X msg 395 480 1 1 1;
#X msg 497 499 0.3 0.3 0;
#X obj 505 415 loadbang;
#X obj 505 438 t b b;
#X obj 196 570 pix_alpha;
#X obj 239 -4 r FromGem;
#X connect 0 0 1 0;
#X connect 1 0 38 0;
#X connect 5 0 23 0;
#X connect 6 0 23 0;
#X connect 12 0 23 0;
#X connect 13 0 17 0;
#X connect 14 0 16 1;
#X connect 15 0 19 1;
#X connect 16 0 19 0;
#X connect 17 0 38 2;
#X connect 18 0 16 1;
#X connect 19 0 12 0;
#X connect 20 0 0 0;
#X connect 21 0 22 0;
#X connect 22 0 20 0;
#X connect 23 0 25 0;
#X connect 24 0 46 0;
#X connect 25 0 24 0;
#X connect 26 0 1 0;
#X connect 27 0 26 0;
#X connect 28 0 25 1;
#X connect 29 0 37 0;
#X connect 30 0 29 4;
#X connect 31 0 29 0;
#X connect 32 0 31 0;
#X connect 33 0 32 0;
#X connect 34 0 35 0;
#X connect 35 0 28 0;
#X connect 36 0 37 1;
#X connect 38 0 16 0;
#X connect 39 0 41 0;
#X connect 40 0 18 0;
#X connect 41 0 18 0;
#X connect 42 0 46 3;
#X connect 43 0 46 4;
#X connect 44 0 45 0;
#X connect 45 0 42 0;
#X connect 45 1 43 0;
#X connect 46 0 31 0;
#X restore 105 199 pd VENDE;
#N canvas 1 144 806 601 COMPRA 0;
#X obj 163 -25 gemhead;
#X obj 163 19 part_head;
#X obj 163 73 part_color;
#X text 247 105 set the size;
#X text 310 269 set the number per frame;
#X text 310 378 set the age to kill at;
#X text 358 207 the velocity domain;
#X msg 219 413 draw line;
#X msg 298 413 draw point;
#X text 356 241 radius = 0.2;
#X floatatom 375 301 0 0 0 0 - - -;
#X text 390 333 orbit point and gravity;
#X obj 158 105 part_size 0.4;
#X obj 282 -6 loadbang;
#X text 355 224 a sphere at 0 0 0;
#X text 415 299 keep the gravity low;
#X obj 198 447 part_info, f 24;
#X obj 79 627 separator;
#X obj 79 653 translate 1 0 0 0;
#X msg 377 527 \$1 \$2 0, f 8;
#X obj 162 361 t a b;
#X msg 277 639 &;
#X obj 215 705 prepend text;
#X floatatom 241 756 5 0 0 0 - - -;
#X obj 77 677 colour;
#X floatatom 368 129 5 0 0 0 - - -;
#X floatatom 304 230 5 0 0 0 - - -;
#X floatatom 268 306 5 0 0 0 - - -;
#X obj 198 270 part_source 0.01;
#X msg 368 154 0 0 \$1 \$1;
#X obj 519 23 vsl 15 128 0 1.5 0 0 empty empty empty 0 -9 0 10 -262144
-1 -1 0 1;
#X msg 334 32 1 1 1;
#X msg 257 30 0 0 0;
#X obj 411 -12 bng 15 250 50 0 empty empty empty 17 7 0 10 -262144
-1 -1;
#X msg 388 32 1 1 0;
#X obj 356 -10 bng 15 250 50 0 empty empty empty 17 7 0 10 -262144
-1 -1;
#X msg 438 33 1 0 0;
#X obj 182 330 part_killold 250;
#X msg 231 641 £;
#X msg 319 641 %;
#X msg 362 642 $;
#X msg 400 645 €;
#X msg 441 646 +;
#X msg 479 648 -;
#X msg 514 651 /;
#X obj 224 529 sel 0 1 2 3 4 5 6 7;
#X obj 224 506 mod 7;
#X obj 160 769 text3d;
#X obj 333 727 loadbang;
#X msg 333 750 4;
#X obj 179 182 part_velocity sphere 0 0 0.25 0.25;
#X obj 142 -69 tgl 15 0 empty empty empty 17 7 0 10 -262144 -1 -1 0
1;
#X floatatom 561 124 5 0 0 0 - - -;
#X obj 519 159 sel 0;
#X obj 118 -119 loadbang;
#X msg 118 -96 0;
#X connect 0 0 1 0;
#X connect 1 0 2 0;
#X connect 2 0 12 0;
#X connect 7 0 16 0;
#X connect 8 0 16 0;
#X connect 12 0 50 0;
#X connect 13 0 31 0;
#X connect 13 0 32 0;
#X connect 16 0 17 0;
#X connect 16 1 46 0;
#X connect 16 2 19 0;
#X connect 16 3 24 1;
#X connect 17 0 18 0;
#X connect 18 0 24 0;
#X connect 19 0 18 2;
#X connect 20 0 16 0;
#X connect 21 0 22 0;
#X connect 22 0 47 0;
#X connect 23 0 47 1;
#X connect 24 0 47 0;
#X connect 25 0 29 0;
#X connect 26 0 28 1;
#X connect 27 0 37 1;
#X connect 28 0 37 0;
#X connect 29 0 50 2;
#X connect 30 0 53 0;
#X connect 31 0 2 2;
#X connect 32 0 2 1;
#X connect 33 0 34 0;
#X connect 33 0 36 0;
#X connect 34 0 2 1;
#X connect 35 0 32 0;
#X connect 35 0 31 0;
#X connect 36 0 2 2;
#X connect 37 0 20 0;
#X connect 38 0 22 0;
#X connect 39 0 22 0;
#X connect 40 0 22 0;
#X connect 41 0 22 0;
#X connect 42 0 22 0;
#X connect 43 0 22 0;
#X connect 44 0 22 0;
#X connect 45 0 38 0;
#X connect 45 1 21 0;
#X connect 45 2 39 0;
#X connect 45 3 40 0;
#X connect 45 4 41 0;
#X connect 45 5 42 0;
#X connect 45 6 43 0;
#X connect 45 7 44 0;
#X connect 46 0 45 0;
#X connect 48 0 49 0;
#X connect 49 0 23 0;
#X connect 50 0 28 0;
#X connect 51 0 0 0;
#X connect 53 1 26 0;
#X connect 54 0 55 0;
#X connect 55 0 51 0;
#X restore 38 199 pd COMPRA;
